  0
SECTION
  2
HEADER
  9
$ACADVER
  1
AC1009
  9
$INSBASE
 10
0.0
 20
0.0
 30
0.0
  9
$EXTMIN
 10
0.0
 20
0.0
 30
0.0
  9
$EXTMAX
 10
0.0
 20
0.0
 30
0.0
  0
ENDSEC
  0
SECTION
  2
TABLES
  0
TABLE
  2
VPORT
 70
0
  0
ENDTAB
  0
TABLE
  2
LTYPE
 70
1
  0
LTYPE
  2
CONTINUOUS
 70
0
  3
Solid line
 72
65
 73
0
 40
0.0
  0
ENDTAB
  0
TABLE
  2
LAYER
 70
1
  0
LAYER
  2
0
 70
64
 62
7
  6
continuous
  0
ENDTAB
  0
TABLE
  2
STYLE
 70
1
  0
STYLE
  2
STANDARD
 70
0
 40
0
 41
1.0
 50
0.0
 71
0
 42
1
 3
ARIAL.TTF
 4

  0
ENDTAB
  0
TABLE
  2
VIEW
 70
0
  0
ENDTAB
  0
ENDSEC
  0
SECTION
  2
BLOCKS
  0
BLOCK
  8
0
  2
PAD_CS
 70
0
 10
0.0
 20
0.0
 30
0.0
  3
PAD_CS
  0
POLYLINE
  8
0
 62
0
 70
1
 66
1
 10
0.0
 20
0.0
 30
0.0
  0
VERTEX
  8
0
 10
-125.0
 20
-270.0
 30
-1.15463194561e-14
  0
VERTEX
  8
0
 10
125.0
 20
-270.0
 30
-1.15463194561e-14
  0
VERTEX
  8
0
 10
125.0
 20
-300.0
 30
-4.88498130835e-15
  0
VERTEX
  8
0
 10
1.9
 20
-300.0
 30
-4.88498130835e-15
  0
VERTEX
  8
0
 10
1.9
 20
-285.0
 30
-8.21565038223e-15
  0
VERTEX
  8
0
 10
-1.9
 20
-285.0
 30
-8.21565038223e-15
  0
VERTEX
  8
0
 10
-1.9
 20
-300.0
 30
-4.88498130835e-15
  0
VERTEX
  8
0
 10
-125.0
 20
-300.0
 30
-4.88498130835e-15
  0
SEQEND
  8
0
  0
CIRCLE
  8
0
 62
0
 10
14.0
 20
-294.0
 30
-5.99520433298e-15
 40
2.0
  0
CIRCLE
  8
0
 62
0
 10
-14.0
 20
-294.0
 30
-5.99520433298e-15
 40
2.0
  0
CIRCLE
  8
0
 62
0
 10
14.0
 20
-276.0
 30
-1.02140518266e-14
 40
2.0
  0
CIRCLE
  8
0
 62
0
 10
-14.0
 20
-276.0
 30
-1.02140518266e-14
 40
2.0
  0
ENDBLK
  0
BLOCK
  8
0
  2
POLARPATTERN_CS
 70
0
 10
0.0
 20
0.0
 30
0.0
  3
POLARPATTERN_CS
  0
CIRCLE
  8
0
 62
0
 10
0.0
 20
0.0
 30
2.0
 40
20.0
  0
CIRCLE
  8
0
 62
0
 10
-6.71751442127
 20
-6.71751442127
 30
2.0
 40
1.45
  0
CIRCLE
  8
0
 62
0
 10
-6.0
 20
-15.0
 30
2.0
 40
2.0
  0
CIRCLE
  8
0
 62
0
 10
15.0
 20
-6.0
 30
2.0
 40
2.0
  0
CIRCLE
  8
0
 62
0
 10
6.0
 20
15.0
 30
2.0
 40
2.0
  0
CIRCLE
  8
0
 62
0
 10
5.65685424949
 20
-5.65685424949
 30
2.0
 40
1.45
  0
CIRCLE
  8
0
 62
0
 10
6.0
 20
-15.0
 30
2.0
 40
2.0
  0
CIRCLE
  8
0
 62
0
 10
15.0
 20
6.0
 30
2.0
 40
2.0
  0
CIRCLE
  8
0
 62
0
 10
-5.65685424949
 20
5.65685424949
 30
2.0
 40
1.45
  0
CIRCLE
  8
0
 62
0
 10
-15.0
 20
-6.0
 30
2.0
 40
2.0
  0
CIRCLE
  8
0
 62
0
 10
6.71751442127
 20
6.71751442127
 30
2.0
 40
1.45
  0
CIRCLE
  8
0
 62
0
 10
-15.0
 20
6.0
 30
2.0
 40
2.0
  0
CIRCLE
  8
0
 62
0
 10
-6.0
 20
15.0
 30
2.0
 40
2.0
  0
ENDBLK
  0
BLOCK
  8
0
  2
SKETCH007
 70
0
 10
0.0
 20
0.0
 30
0.0
  3
SKETCH007
  0
POLYLINE
  8
0
 62
7
 70
0
 66
1
 10
0.0
 20
0.0
 30
0.0
  0
VERTEX
  8
0
 10
51.0
 20
-200.0
 30
1.0
  0
VERTEX
  8
0
 10
63.0
 20
-200.0
 30
1.0
  0
SEQEND
  8
0
  0
POLYLINE
  8
0
 62
7
 70
0
 66
1
 10
0.0
 20
0.0
 30
0.0
  0
VERTEX
  8
0
 10
63.0
 20
-230.0
 30
1.0
  0
VERTEX
  8
0
 10
51.0
 20
-230.0
 30
1.0
  0
SEQEND
  8
0
  0
POLYLINE
  8
0
 62
7
 70
0
 66
1
 10
0.0
 20
0.0
 30
0.0
  0
VERTEX
  8
0
 10
51.0
 20
-204.285714286
 30
1.0
  0
VERTEX
  8
0
 10
51.0
 20
-208.571428571
 30
1.0
  0
SEQEND
  8
0
  0
POLYLINE
  8
0
 62
7
 70
0
 66
1
 10
0.0
 20
0.0
 30
0.0
  0
VERTEX
  8
0
 10
51.0
 20
-212.857142857
 30
1.0
  0
VERTEX
  8
0
 10
51.0
 20
-217.142857143
 30
1.0
  0
SEQEND
  8
0
  0
POLYLINE
  8
0
 62
7
 70
0
 66
1
 10
0.0
 20
0.0
 30
0.0
  0
VERTEX
  8
0
 10
51.0
 20
-221.428571429
 30
1.0
  0
VERTEX
  8
0
 10
51.0
 20
-225.714285714
 30
1.0
  0
SEQEND
  8
0
  0
ENDBLK
  0
BLOCK
  8
0
  2
PART__MIRRORING
 70
0
 10
0.0
 20
0.0
 30
0.0
  3
PART__MIRRORING
  0
POLYLINE
  8
0
 62
7
 70
0
 66
1
 10
0.0
 20
0.0
 30
0.0
  0
VERTEX
  8
0
 10
-50.9999980927
 20
-200.0
 30
1.00001215932
  0
VERTEX
  8
0
 10
-62.9999980927
 20
-200.0
 30
1.00001502033
  0
SEQEND
  8
0
  0
POLYLINE
  8
0
 62
7
 70
0
 66
1
 10
0.0
 20
0.0
 30
0.0
  0
VERTEX
  8
0
 10
-62.9999980927
 20
-230.0
 30
1.00001502033
  0
VERTEX
  8
0
 10
-50.9999980927
 20
-230.0
 30
1.00001215932
  0
SEQEND
  8
0
  0
POLYLINE
  8
0
 62
7
 70
0
 66
1
 10
0.0
 20
0.0
 30
0.0
  0
VERTEX
  8
0
 10
-50.9999980927
 20
-204.285714286
 30
1.00001215932
  0
VERTEX
  8
0
 10
-50.9999980927
 20
-208.571428571
 30
1.00001215932
  0
SEQEND
  8
0
  0
POLYLINE
  8
0
 62
7
 70
0
 66
1
 10
0.0
 20
0.0
 30
0.0
  0
VERTEX
  8
0
 10
-50.9999980927
 20
-212.857142857
 30
1.00001215932
  0
VERTEX
  8
0
 10
-50.9999980927
 20
-217.142857143
 30
1.00001215932
  0
SEQEND
  8
0
  0
POLYLINE
  8
0
 62
7
 70
0
 66
1
 10
0.0
 20
0.0
 30
0.0
  0
VERTEX
  8
0
 10
-50.9999980927
 20
-221.428571429
 30
1.00001215932
  0
VERTEX
  8
0
 10
-50.9999980927
 20
-225.714285714
 30
1.00001215932
  0
SEQEND
  8
0
  0
ENDBLK
  0
ENDSEC
  0
SECTION
  2
ENTITIES
  0
INSERT
  2
PAD_CS
  8
0
 62
0
 10
0.0
 20
0.0
 30
0.0
  0
INSERT
  2
POLARPATTERN_CS
  8
0
 62
0
 10
0.0
 20
0.0
 30
0.0
  0
INSERT
  2
SKETCH007
  8
0
 62
7
 10
0.0
 20
0.0
 30
0.0
  0
INSERT
  2
PART__MIRRORING
  8
0
 62
7
 10
0.0
 20
0.0
 30
0.0
  0
POLYLINE
  8
0
 62
7
 70
1
 66
1
 10
0.0
 20
0.0
 30
0.0
  0
VERTEX
  8
0
 10
-63.0
 20
-160.0
 30
0.0
  0
VERTEX
  8
0
 10
63.0
 20
-160.0
 30
0.0
  0
VERTEX
  8
0
 10
63.0
 20
-260.0
 30
0.0
  0
VERTEX
  8
0
 10
-63.0
 20
-260.0
 30
0.0
  0
SEQEND
  8
0
  0
ENDSEC
  0
EOF
