  0
SECTION
  2
HEADER
  9
$ACADVER
  1
AC1009
  9
$INSBASE
 10
0.0
 20
0.0
 30
0.0
  9
$EXTMIN
 10
0.0
 20
0.0
 30
0.0
  9
$EXTMAX
 10
0.0
 20
0.0
 30
0.0
  0
ENDSEC
  0
SECTION
  2
TABLES
  0
TABLE
  2
VPORT
 70
0
  0
ENDTAB
  0
TABLE
  2
LTYPE
 70
1
  0
LTYPE
  2
CONTINUOUS
 70
0
  3
Solid line
 72
65
 73
0
 40
0.0
  0
ENDTAB
  0
TABLE
  2
LAYER
 70
1
  0
LAYER
  2
0
 70
64
 62
7
  6
continuous
  0
ENDTAB
  0
TABLE
  2
STYLE
 70
1
  0
STYLE
  2
STANDARD
 70
0
 40
0
 41
1.0
 50
0.0
 71
0
 42
1
 3
ARIAL.TTF
 4

  0
ENDTAB
  0
TABLE
  2
VIEW
 70
0
  0
ENDTAB
  0
ENDSEC
  0
SECTION
  2
BLOCKS
  0
BLOCK
  8
0
  2
LINEARPATTERN_CS
 70
0
 10
0.0
 20
0.0
 30
0.0
  3
LINEARPATTERN_CS
  0
POLYLINE
  8
0
 62
0
 70
1
 66
1
 10
0.0
 20
0.0
 30
0.0
  0
VERTEX
  8
0
 10
407.0
 20
35.0
 30
2.0
  0
VERTEX
  8
0
 10
-10.0
 20
35.0
 30
2.0
  0
VERTEX
  8
0
 10
-10.0
 20
85.0
 30
2.0
  0
VERTEX
  8
0
 10
407.0
 20
85.0
 30
2.0
  0
SEQEND
  8
0
  0
POLYLINE
  8
0
 62
0
 70
1
 66
1
 10
0.0
 20
0.0
 30
0.0
  0
VERTEX
  8
0
 10
295.25
 20
45.0
 30
2.0
  0
VERTEX
  8
0
 10
295.25
 20
75.0
 30
2.0
  0
VERTEX
  8
0
 10
265.75
 20
75.0
 30
2.0
  0
VERTEX
  8
0
 10
265.75
 20
45.0
 30
2.0
  0
SEQEND
  8
0
  0
POLYLINE
  8
0
 62
0
 70
1
 66
1
 10
0.0
 20
0.0
 30
0.0
  0
VERTEX
  8
0
 10
361.25
 20
75.0
 30
2.0
  0
VERTEX
  8
0
 10
331.75
 20
75.0
 30
2.0
  0
VERTEX
  8
0
 10
331.75
 20
45.0
 30
2.0
  0
VERTEX
  8
0
 10
361.25
 20
45.0
 30
2.0
  0
SEQEND
  8
0
  0
POLYLINE
  8
0
 62
0
 70
1
 66
1
 10
0.0
 20
0.0
 30
0.0
  0
VERTEX
  8
0
 10
67.75
 20
75.0
 30
2.0
  0
VERTEX
  8
0
 10
67.75
 20
45.0
 30
2.0
  0
VERTEX
  8
0
 10
97.25
 20
45.0
 30
2.0
  0
VERTEX
  8
0
 10
97.25
 20
75.0
 30
2.0
  0
SEQEND
  8
0
  0
POLYLINE
  8
0
 62
0
 70
1
 66
1
 10
0.0
 20
0.0
 30
0.0
  0
VERTEX
  8
0
 10
64.25
 20
75.0
 30
2.0
  0
VERTEX
  8
0
 10
34.75
 20
75.0
 30
2.0
  0
VERTEX
  8
0
 10
34.75
 20
45.0
 30
2.0
  0
VERTEX
  8
0
 10
64.25
 20
45.0
 30
2.0
  0
SEQEND
  8
0
  0
POLYLINE
  8
0
 62
0
 70
1
 66
1
 10
0.0
 20
0.0
 30
0.0
  0
VERTEX
  8
0
 10
130.25
 20
75.0
 30
2.0
  0
VERTEX
  8
0
 10
100.75
 20
75.0
 30
2.0
  0
VERTEX
  8
0
 10
100.75
 20
45.0
 30
2.0
  0
VERTEX
  8
0
 10
130.25
 20
45.0
 30
2.0
  0
SEQEND
  8
0
  0
POLYLINE
  8
0
 62
0
 70
1
 66
1
 10
0.0
 20
0.0
 30
0.0
  0
VERTEX
  8
0
 10
31.25
 20
75.0
 30
2.0
  0
VERTEX
  8
0
 10
1.75
 20
75.0
 30
2.0
  0
VERTEX
  8
0
 10
1.75
 20
45.0
 30
2.0
  0
VERTEX
  8
0
 10
31.25
 20
45.0
 30
2.0
  0
SEQEND
  8
0
  0
POLYLINE
  8
0
 62
0
 70
1
 66
1
 10
0.0
 20
0.0
 30
0.0
  0
VERTEX
  8
0
 10
133.75
 20
75.0
 30
2.0
  0
VERTEX
  8
0
 10
133.75
 20
45.0
 30
2.0
  0
VERTEX
  8
0
 10
163.25
 20
45.0
 30
2.0
  0
VERTEX
  8
0
 10
163.25
 20
75.0
 30
2.0
  0
SEQEND
  8
0
  0
POLYLINE
  8
0
 62
0
 70
1
 66
1
 10
0.0
 20
0.0
 30
0.0
  0
VERTEX
  8
0
 10
298.75
 20
75.0
 30
2.0
  0
VERTEX
  8
0
 10
298.75
 20
45.0
 30
2.0
  0
VERTEX
  8
0
 10
328.25
 20
45.0
 30
2.0
  0
VERTEX
  8
0
 10
328.25
 20
75.0
 30
2.0
  0
SEQEND
  8
0
  0
POLYLINE
  8
0
 62
0
 70
1
 66
1
 10
0.0
 20
0.0
 30
0.0
  0
VERTEX
  8
0
 10
262.25
 20
75.0
 30
2.0
  0
VERTEX
  8
0
 10
232.75
 20
75.0
 30
2.0
  0
VERTEX
  8
0
 10
232.75
 20
45.0
 30
2.0
  0
VERTEX
  8
0
 10
262.25
 20
45.0
 30
2.0
  0
SEQEND
  8
0
  0
POLYLINE
  8
0
 62
0
 70
1
 66
1
 10
0.0
 20
0.0
 30
0.0
  0
VERTEX
  8
0
 10
166.75
 20
45.0
 30
2.0
  0
VERTEX
  8
0
 10
196.25
 20
45.0
 30
2.0
  0
VERTEX
  8
0
 10
196.25
 20
75.0
 30
2.0
  0
VERTEX
  8
0
 10
166.75
 20
75.0
 30
2.0
  0
SEQEND
  8
0
  0
POLYLINE
  8
0
 62
0
 70
1
 66
1
 10
0.0
 20
0.0
 30
0.0
  0
VERTEX
  8
0
 10
199.75
 20
45.0
 30
2.0
  0
VERTEX
  8
0
 10
229.25
 20
45.0
 30
2.0
  0
VERTEX
  8
0
 10
229.25
 20
75.0
 30
2.0
  0
VERTEX
  8
0
 10
199.75
 20
75.0
 30
2.0
  0
SEQEND
  8
0
  0
POLYLINE
  8
0
 62
0
 70
1
 66
1
 10
0.0
 20
0.0
 30
0.0
  0
VERTEX
  8
0
 10
364.75
 20
45.0
 30
2.0
  0
VERTEX
  8
0
 10
394.25
 20
45.0
 30
2.0
  0
VERTEX
  8
0
 10
394.25
 20
75.0
 30
2.0
  0
VERTEX
  8
0
 10
364.75
 20
75.0
 30
2.0
  0
SEQEND
  8
0
  0
ENDBLK
  0
BLOCK
  8
0
  2
PAD004_CS
 70
0
 10
0.0
 20
0.0
 30
0.0
  3
PAD004_CS
  0
POLYLINE
  8
0
 62
0
 70
1
 66
1
 10
0.0
 20
0.0
 30
0.0
  0
VERTEX
  8
0
 10
420.0
 20
136.0
 30
-2.0
  0
VERTEX
  8
0
 10
-20.0
 20
136.0
 30
-2.0
  0
VERTEX
  8
0
 10
-20.0
 20
145.0
 30
-2.0
  0
VERTEX
  8
0
 10
420.0
 20
145.0
 30
-2.0
  0
SEQEND
  8
0
  0
POLYLINE
  8
0
 62
0
 70
1
 66
1
 10
0.0
 20
0.0
 30
0.0
  0
VERTEX
  8
0
 10
-20.0
 20
95.0
 30
-2.0
  0
VERTEX
  8
0
 10
420.0
 20
95.0
 30
-2.0
  0
VERTEX
  8
0
 10
420.0
 20
104.0
 30
-2.0
  0
VERTEX
  8
0
 10
-20.0
 20
104.0
 30
-2.0
  0
SEQEND
  8
0
  0
ENDBLK
  0
ENDSEC
  0
SECTION
  2
ENTITIES
  0
INSERT
  2
LINEARPATTERN_CS
  8
0
 62
0
 10
0.0
 20
0.0
 30
0.0
  0
POLYLINE
  8
0
 62
0
 70
1
 66
1
 10
0.0
 20
0.0
 30
0.0
  0
VERTEX
  8
0
 10
420.0
 20
155.0
 30
-5.0
  0
VERTEX
  8
0
 10
-20.0
 20
155.0
 30
-5.0
  0
VERTEX
  8
0
 10
-20.0
 20
205.0
 30
-5.0
  0
VERTEX
  8
0
 10
420.0
 20
205.0
 30
-5.0
  0
SEQEND
  8
0
  0
INSERT
  2
PAD004_CS
  8
0
 62
0
 10
0.0
 20
0.0
 30
0.0
  0
ENDSEC
  0
EOF
